# xmcd CD database file
#
# Track frame offsets:
#	150
#	29860
#	54829
#	77222
#	103989
#	113668
#	139684
#	155184
#	175501
#	196933
#	219616
#
# Disc length: 3113 seconds
#
# Revision: 0
# Processed by: cddbd v1.5.1PL0 Copyright (c) Steve Scherf et al.
# Submitted via: CDex 1.51
#
DISCID=9a0c270b
DTITLE=Saico - CEREAL
DYEAR=2005
DGENRE=
TTITLE0=Valentine
TTITLE1=MOTHER
TTITLE2=HOLD ME
TTITLE3=CEREAL
TTITLE4=No Run
TTITLE5=RHYTHM
TTITLE6=BEST DAYS
TTITLE7=MELODY
TTITLE8=SMOKE
TTITLE9=ATO-SUKOSHI
TTITLE10=COLOR
EXTD=YEAR: 2005
EXTT0=
EXTT1=
EXTT2=
EXTT3=
EXTT4=
EXTT5=
EXTT6=
EXTT7=
EXTT8=
EXTT9=
EXTT10=
PLAYORDER=
